<?xml version="1.0" encoding="UTF-8"?>
<svg version="1.1" viewBox="0 0 2048 960" width="1591" height="746" xmlns="http://www.w3.org/2000/svg">
<path transform="translate(0)" d="m0 0h2048v960h-2048z" fill="#203A45"/>
<path transform="translate(1514,177)" d="m0 0h14l118 26 140 31 85 19 12 6 7 8 4 11v10l-23 105-18 80-5 10-7 7-8 4-4 1h-11l-69-15-275-61-9-4-8-7-5-8-2-8 1-13 40-180 5-10 7-7 8-4z" fill="#374C61"/>
<path transform="translate(847,474)" d="m0 0h18l324 11 18 1 9 3 9 7 5 8 2 6v33l-5 146-1 18-4 11-7 8-8 5-7 2h-19l-322-11-19-1-11-4-9-8-4-8-1-3v-43l5-147 2-13 4-8 5-6 11-6z" fill="#98A5A7"/>
<path transform="translate(1396,209)" d="m0 0h21l10 3 8 6 6 8 3 12 2 87 1 65v42l-4 10-5 6-10 6-6 2-30 1-212 4-114 2-11-2-10-6-6-8-3-8-1-7-3-158v-33l3-9 7-9 8-5 6-2 15-1 114-2z" fill="#39CF7F"/>
<path transform="translate(627,217)" d="m0 0h214l146 1 8 3 8 6 4 8 1 3v187l-2 8-6 8-6 3-5 1h-41l-307-1-20-1-8-4-6-8-1-3v-186l2-9 6-9 5-4z" fill="#FEFEFD"/>
<path transform="translate(838,582)" d="m0 0h23l326 11 20 1 8 3 7 8 2 4v16l-2 60-1 17-3 7-8 7-6 2-45-1-293-10-26-1-9-2-8-7-3-6v-33l2-54 1-9 6-8 6-4z" fill="#FEFEFD"/>
<path transform="translate(199,263)" d="m0 0 10 1 342 114 9 6 4 8v11l-14 43-13 38-4 6-6 5-10 2-15-4-333-111-9-6-5-10 1-11 26-78 6-9 7-4z" fill="#FEFEFD"/>
<path transform="translate(1390,317)" d="m0 0h34l9 4 5 6 2 4 1 11 1 58v24l-3 7-5 6-7 3-14 1-148 3-159 3h-51l-8-5-5-6-2-12-1-52v-33l4-8 8-6 3-1 24-1z" fill="#FEFEFD"/>
<path transform="translate(1489,282)" d="m0 0h13l339 75 15 4 8 7 3 6v12l-17 77-4 9-5 5-5 3-8 1-42-9-312-69-9-4-6-7-2-3v-12l18-81 3-6 8-7z" fill="#FEFEFD"/>
<path transform="translate(627,217)" d="m0 0h214l146 1 8 3 8 6 4 8 1 3v97l-3-3-6-7-8-3-122-1h-248l-8 4-6 10h-1v-93l2-9 6-9 5-4z" fill="#00FFD0"/>
<path transform="translate(233,167)" d="m0 0h9l20 6 41 14 180 60 43 14 51 17 9 5 7 8 3 9-1 10-14 43-14 41-2 4-4-11-5-5-8-4-339-113-10-1-10 4-5 5 3-11 26-78 6-10 10-6z" fill="#CC3836"/>
<path transform="translate(232,162)" d="m0 0h12l43 14 294 98 10 6 6 8 3 7 1-53 2-10 3-6 8-9 8-4 4-1h194l167 1 11 4 8 6 5 8 2 6v195l-3 10-5 8-7 6-7 3-5 1h-51l-304-1-10-2-8-4-7-7-4-8-1-5-1-123-6 20-53 159-4 8-8 8-9 4-4 1h-9l-17-5-321-107-9-5-8-9-4-13 1-11 59-177 5-9 7-7 8-4zm1 5-10 4-5 5-5 8-57 171-1 11 5 10 9 6 324 108 19 6 7 1 10-3 7-8 7-19 20-60 2-9 2-4 17-50 11-34 1-10-4-11-7-7-11-5-87-29-43-14-192-64-10-3zm394 50-10 4-7 8-3 7-1 6v186l4 8 8 6 3 1 20 1 307 1h41l9-3 5-4 4-7 1-6v-187l-4-9-4-5-9-5-4-1-146-1z" fill="#109D84"/>
<path transform="translate(895,768)" d="m0 0h257l5 3 3 5v39l-3 6-7 3h-254l-6-3-3-4v-42l4-5z" fill="#109F86"/>
<path transform="translate(1396,209)" d="m0 0h21l10 3 8 6 6 8 3 12 2 87 1 65v42l-4 10-5 6-10 6-6 2-30 1-212 4-114 2-11-2-10-6-6-8-3-8-1-7-3-158v-33l3-9 7-9 8-5 6-2 15-1 114-2zm15 5-142 3-209 4-10 3-9 8-4 10 1 31 2 5v14l-1 4v31l7-1 5-1-8 6-4 8v33l1 52 2 12 7 8 6 3h51l307-6 14-1 8-4 6-8 1-4v-24l-1-88-1-11-1-49-1-18-4-9-7-7-6-3z" fill="#10A185"/>
<path transform="translate(1514,177)" d="m0 0h14l118 26 140 31 85 19 12 6 7 8 4 11v10l-23 105-18 80-5 10-7 7-8 4-4 1h-11l-69-15-275-61-9-4-8-7-5-8-2-8 1-13 40-180 5-10 7-7 8-4zm2 5-9 4-6 5-5 10-19 85-3 14-17 77v12l6 8 5 4 15 4 100 22 176 39 63 14 9 1 9-3 5-4 4-8 8-35 10-45 1-8h1l9-42 11-50-1-10-4-8-8-7-11-4-339-75z" fill="#0F9F86"/>
<path transform="translate(847,474)" d="m0 0h18l324 11 18 1 9 3 9 7 5 8 2 6v33l-5 146-1 18-4 11-7 8-8 5-7 2h-19l-322-11-19-1-11-4-9-8-4-8-1-3v-43l5-147 2-13 4-8 5-6 11-6zm2 5-10 3-9 8-4 10-1 12-5 146v33l3 6 8 7 9 2 351 12h13l8-3 8-9 1-4 2-47 4-119v-24l-4-10-7-7-7-3-5-1-323-11z" fill="#10A185"/>
<path transform="translate(0,3)" d="m0 0h155l-1 5-6 2-27 1-7 1-7-1-17 1-13 2-6 2-1-2h-7v4l10-1v2l5 2 1 7 1 2 4 1v-3h2l2-5h6l3 1 5-1 4 6 1 4-6 8h-8l1-5h2l-1-4h-5l-1-4-1 5-5 2-7-3v-5l-6 2-5 8-2 2 1 6 2 1-5 4-6 3-1 2-5 2 1 8-1 1 4 1 2 2 2-1 2 1 1-5 4 1v4l-1 7-5 5v3l-3 1 1 1 2-1-1 7-2 3h-2l-2 4-5 4-4 6h-2v3l-4 2-5 8-9 2-8 16h-3v3h-2l-2 6 1 4-1 5-1 4-4 8h-2z" fill="#12222A"/>
<path transform="translate(1440,429)" d="m0 0h2l-2 8h-2l-2 5-7 6-7 3-8 1-102 3h-37l-164 3h-50l-7-4-5-2-5-6-2-3v-5l4 2 5 4 4 2h51l307-6 14-1 8-4z" fill="#22B77F"/>
<path transform="translate(606,429)" d="m0 0 4 5 5 5 6 3 20 1 307 1h41l9-3 5-5 4-5-1 8-6 9-8 5-7 2h-283l-70-1-11-2-8-6-5-7z" fill="#00FFD0"/>
<path transform="translate(1456,384)" d="m0 0h1l2 6 4 6 5 4 15 4 100 22 176 39 63 14 9 1 9-3 5-5 2 1-4 8-8 6-8 3h-8l-91-20-253-56-10-5-6-7-3-7z" fill="#394E63"/>
<path transform="translate(154,361)" d="m0 0h1l3 10 4 6 10 5 321 107 19 6 7 1 10-3 6-5-2 5-6 7-9 4-10 1-20-6-318-106-9-6-6-9-1-3z" fill="#CD3735"/>
<path transform="translate(820,691)" d="m0 0 2 3 7 8 5 2 6 1 351 12h13l8-3 7-8 1 3-5 10-8 6-10 3-63-2-292-10-10-3-6-5-4-6-2-7z" fill="#98A5A7"/>
<path transform="translate(2020,911)" d="m0 0h28v47h-24l-9-2-8-6-4-7-2-7 1-9 5-8 7-6z" fill="#FBFCFB"/>
<path transform="translate(1042,438)" d="m0 0 4 2 5 4 4 2h87l12 2h30l5 1v-1l14-1h47l-1 4-13 3-1 1-19 1-105 2h-50l-7-4-5-2-5-6-2-3z" fill="#21B77F"/>
<path transform="translate(2026,859)" d="m0 0 10 2 6 4 5 7 1 3v11l-5 8-4 4-8 3h-8l-10-5-4-5-2-6v-11l4-7 7-6z" fill="#F5F6F6"/>
<path transform="translate(1913,277)" d="m0 0h2l1 4-2 13 1 5h-2l-1 6-7 15-6 23-8 26-2 11-5 15-9 35-4 16-7 26-11 25-1-4h-3l2-6 7-14 7-25 5-22 6-25 4-13 2-5 6-29 8-25 7-25 2-7 5-6v-6l2-3z" fill="#204653"/>
<path transform="translate(1340,944)" d="m0 0 1 2 5 1 4 4 8-1 3 1h10l6-1v-2l8-1 3 1 3 3 7 3 12 1 4 4v1h-77l-6-2-7-1-1 2v-2l-5 1-5-4 4-3 10-4 9-2 4 1z" fill="#204552"/>
<path transform="translate(1287,723)" d="m0 0 2 2v2l2 2-2 6-3 5-4 4-3 6-7 2-2 8-4 4-5 2-5 5-9 12-5 2-3 1-2 5h-2v3h-3v2h-2v2h-3l-2 4-3 3v5l-2 3h-2v5l-2 2-1 4-4-1v-5l3-7 3 1v-4l1-5 1-2h-2v-2l5-1v-2l2-1v-3l3-1v-3h8v-5l8-5h2v-3l5-4h2l1-6h2v-2l4-1 2-3 1-6 6-2-1-7h3 5l2-2-5-2v2l-2-1v-7l5-3 3-3 3-2h4v-2z" fill="#204552"/>
<path transform="translate(988,860)" d="m0 0h10l6 4 3 3 2 6-1 8-4 6-5 4-8 1-8-1-6 1 1-11-1-7 3-8 6-5z" fill="#204350"/>
<path transform="translate(1128,94)" d="m0 0 5 1 3 3 1-3h6l1 1v29l-3 6-6 3h-9l-4-1v-6h12l2-2 1-5h-2v2l-2 1h-8l-5-5-1-4v-11l4-6z" fill="#F8F8F8"/>
<path transform="translate(902,85)" d="m0 0h8l4 8 6 17 1-25h6v38h-7l-4-8-6-16-1 24-1 1h-5l-1-1z" fill="#F6F7F7"/>
<path transform="translate(1203,447)" d="m0 0h47l-1 4-13 3h-25l-22-2-9 2-13 1h-24l-8-3v-3l8-1h41l5 1v-1z" fill="#39D07F"/>
<path transform="translate(148,375)" d="m0 0 2 1 4 9 7 8 11 5 258 86 1 2-9-2-81-27-43-14-36-12-55-18-36-12-12-6-5-5-5-8z" fill="#172D37"/>
<path transform="translate(940,95)" d="m0 0h11l6 4 1 2v22l-1 1h-5l-1-3-5 3h-7l-6-5v-9l5-5 4-1h9l-2-3h-9l-5 1v-5z" fill="#F7F8F7"/>
<path transform="translate(230,160)" d="m0 0h12v1l-10 2-9 3-10 9-5 11-58 174-2 1 4-17 8-25 18-54 4-9 12-41 6-19 8-20 5-7 14-8z" fill="#142831"/>
<path transform="translate(1095,95)" d="m0 0h12l5 4 1 2v22h-7v-2l-5 3h-7l-5-4-1-3v-7l5-5 4-1h9v-3h-11l-5 1 1-6z" fill="#F8F9F8"/>
<path transform="translate(973,94)" d="m0 0 5 2h2l1-1h6l3 4v24l-5 1-1-1v-23l-3 1-1 22-5 1-1-1-1-22h-3l-1 23h-5l-1-1v-28h5 3z" fill="#EDEFEF"/>
<path transform="translate(1344,95)" d="m0 0h11l5 4 2 4v8h-19l3 6h10l5-2v7l-7 2h-8l-7-3-3-6v-12l4-6z" fill="#FAFBFA"/>
<path transform="translate(786,95)" d="m0 0h11l5 4 2 6v6h-19l3 6h9l6-2v7l-7 2h-9l-6-3-3-6v-12l4-6z" fill="#FAFAF9"/>
<path transform="translate(1e3 95)" d="m0 0h10l5 3 3 5v8h-19l3 6h11l4-1v6l-6 2h-10l-6-4-3-5v-11l3-5z" fill="#F9F9F8"/>
<path transform="translate(1191,84)" d="m0 0 9 1 4 1v7l-5-1h-10l1 5 8 4 5 3 3 4v9l-3 5-4 2h-12l-5-2v-8l7 3h7l3-1-2-6-13-7-2-4v-8l4-5z" fill="#F7F8F8"/>
<path transform="translate(633,84)" d="m0 0 9 1 4 2v6l-10-2-4 2v4l5 3 7 3 4 5v10l-3 4-6 2h-10l-5-2v-8l7 3h7l3-1-2-6-13-7-2-4v-8l4-5z" fill="#F7F8F7"/>
<path transform="translate(692,85)" d="m0 0h12l4 2v7l-7-3-7 1v5l13 7 3 4v8l-2 5-7 3h-10l-5-2v-7l4 1 2 1h8l2-3-1-4-13-7-3-5 1-8z" fill="#F9FAF9"/>
<path transform="translate(1042,438)" d="m0 0 4 2 5 4 4 2 12 1v1l42 2 5 1v3l-18 3h-36l-11-5-5-6-2-3z" fill="#3ACE7F"/>
<path transform="translate(1307,84)" d="m0 0h7l1 20 7-8 1-1h8l-2 4-6 5 1 5 8 13v2h-7l-4-5-3-5v-3l-3 1-1 11h-7z" fill="#FAFAFA"/>
<path transform="translate(842,84)" d="m0 0h7l1 13 3-2h6l5 5v23l-1 1h-5l-1-1-1-21h-5l-1 1-1 20h-7z" fill="#FCFCFB"/>
<path transform="translate(1084,872)" d="m0 0 4 2 14 9 5-1 13-9h2v18l-1 1h-35l-1-1z" fill="#CD3735"/>
<path transform="translate(1086,863)" d="m0 0h35l1 6-8 7-10 6-8-4-11-8-1-4z" fill="#CD3735"/>
<path transform="translate(1052,863)" d="m0 0 8 1 2-1 1 4-3 2-2 9-4 6-6 4-9 1-4-2 5-2-5-6h2v-2l-4-2-1-2 2-1-1-7 6 4 8 2 1-5z" fill="#00FDCE"/>
<path transform="translate(1498,79)" d="m0 0 2 1 4 16 4 5 9 4-3 2-9 2-4 4-3 10-2-1-4-10-12-6 4-3 8-4 3-8z" fill="#9BA8AA"/>
<path transform="translate(747,85)" d="m0 0h26v6l-1 1h-8v31l-1 1h-6l-1-1v-31h-9l-1-5z" fill="#F1F3F2"/>
<path transform="translate(654,85)" d="m0 0h26v7h-9v31l-1 1h-6l-1-1v-31h-9z" fill="#F2F3F3"/>
<path transform="translate(566,79)" d="m0 0 2 3 3 14 1 3h2v2l10 3 1 2-15 4-3 10-1 4h-2l-3-10-4-4-9-4 4-3 7-3 3-5z" fill="#9BA7A9"/>
<path transform="translate(1219,86)" d="m0 0h7l1 1v8h9v6h-9l1 16 8 1v6l-13-1-4-6v-16h-7v-6h7z" fill="#ECEFEE"/>
<path transform="translate(955,493)" d="m0 0h6v11h7v-10l1-1h5l1 5-1 25h-6v-13h-7v12l-1 1h-5l-1-1z" fill="#FFFFFE"/>
<path transform="translate(1057,85)" d="m0 0h26v6l-1 1h-9v32h-6l-1-1v-31h-9l-1-1v-5z" fill="#F7F8F8"/>
<path transform="translate(842,234)" d="m0 0 8 1 5 6v10l-5 6-2 1h-7l-6-5-1-3v-8l4-6z" fill="#FFFFFE"/>
<path transform="translate(1062,503)" d="m0 0 6 1 5 5 1 2v8l-4 6-3 2h-7l-5-3-2-5v-8l4-6z" fill="#FFFFFE"/>
<path transform="translate(736,227)" d="m0 0h5l1 1 1 10 6 1v-12h6l1 4-1 26h-6v-13h-7v13h-6z" fill="#FFFFFE"/>
<path transform="translate(1271,234)" d="m0 0h8l5 4 1 2v11l-4 5-2 1h-8l-5-4-1-2v-11l4-5z" fill="#FFFFFE"/>
<path transform="translate(1405,95)" d="m0 0h12l3 1v6l-4-1h-8l1 4 10 3 3 4-1 9-2 2-4 1h-11l-4-2v-6l11 2 3-1 1-4-11-2-4-5v-7z" fill="#F6F7F6"/>
<path transform="translate(1440,429)" d="m0 0h2l-2 8h-2l-2 5-7 6-6 2h-23l-8-3-1-3 13-2v-1l23-2 8-4z" fill="#39D07F"/>
<path transform="translate(435,251)" d="m0 0h7l6 5 1 7-3 7-4 4h-8l-5-4-1-2v-9l4-6z" fill="#FFFFFE"/>
<path transform="translate(1180,228)" d="m0 0 5 1 1 29h-6v-13h-8v13h-6v-29h6v11h7v-11z" fill="#FFFFFE"/>
<path transform="translate(1724,245)" d="m0 0h8l5 4 1 2v8l-3 6-6 3-6-1-5-5v-10l4-6z" fill="#FFFFFE"/>
<path transform="translate(341,211)" d="m0 0 5 1-2 11 6 1 3-9 6 1-3 11-6 17-5-1 1-7 1-6-6-2-3 11-3 1-3-1 2-9 6-18z" fill="#FFFFFE"/>
<path transform="translate(985,501)" d="m0 0h9l5 5 1 2v7h-15l1 3 7 1 6-1-1 5-1 1h-12l-5-4-1-2v-11l4-5z" fill="#FFFFFE"/>
<path transform="translate(767,234)" d="m0 0h7l5 3 2 4v7h-15l1 3 2 1h7l4-1v5l-7 2-8-1-5-6v-10l3-5z" fill="#FFFFFE"/>
<path transform="translate(657,81)" d="m0 0h21l3 1v2l5 1 3-3 10-1 8 2 1 2h-13l-6 3-3 5 1 7 2 6-4-2-3-6-7-1v17l-2 9-2-2v-29h9l-1-8h-26l1-2z" fill="#182A34"/>
<path transform="translate(1626,215)" d="m0 0 5 1-1 11 6 1 2-9 4-1 2 1-2 12-4 17-5-1 1-10 1-4-8-1-1 9-1 4-5-1 1-10 4-18z" fill="#FFFFFE"/>
<path transform="translate(1246,95)" d="m0 0h13l1 1v22h10v5l-1 1h-24l-1-1v-5h9v-17h-7z" fill="#F3F4F3"/>
<path transform="translate(366,227)" d="m0 0 9 2 3 4 1 6-2 5-15-4 1 5 12 2-2 5-10-2-5-4-1-2v-7l3-6 3-3z" fill="#FFFFFE"/>
<path transform="translate(1284,95)" d="m0 0h12l2 2v6l-12-2v2h-2v10l3 4h8l3-1v6l-3 2h-10l-5-3-3-3-1-4v-9l3-7z" fill="#F9FAF9"/>
<path transform="translate(1198,235)" d="m0 0h6l5 3 2 4v6l-15 1 3 4h7l4-1 1 2-1 3-2 1h-12l-5-5-1-3v-7l3-5z" fill="#FFFFFE"/>
<path transform="translate(819,95)" d="m0 0h10l4 2v6l-12-2-2 4v9l1 3h10l3-1v6l-5 2h-8l-5-3-3-3-1-4v-10l3-5z" fill="#FBFBFA"/>
<path transform="translate(1651,229)" d="m0 0h9l5 4 1 8-2 3-14-3 2 5 3 1h8l-1 5h-9l-7-4-1-2v-10l4-6z" fill="#FFFFFE"/>
<path transform="translate(936,870)" d="m0 0h7 2 8l3 3 1 3v15h-7l-1-14-4-1-1 1-1 13-1 1h-6z" fill="#0E9F86"/>
<path transform="translate(988,860)" d="m0 0h10l6 4 3 3 2 6-1 8-4 6-5 4-8 1-8-1-6 1 1-11-1-7 3-8 6-5zm1 3-6 4-3 7 2 10 1 4 12 1 6-3 4-5 1-8-3-6-5-4z" fill="#18AF80"/>
<path transform="translate(1386,94)" d="m0 0 5 1 2 1v6h-10l-3 3-1 18h-7v-28h7l1 3z" fill="#FAFBFA"/>
<path transform="translate(148,375)" d="m0 0 2 1 4 9 7 8 11 5 90 30v2l-10-2-36-12-37-12-19-8-5-4-6-10z" fill="#152932"/>
<path transform="translate(785,226)" d="m0 0h11l1 1v23l1 2 7 2v3l-4 1-7-1-3-3-1-4v-19l-6-1z" fill="#FFFFFE"/>
<path transform="translate(1e3 493)" d="m0 0h11l1 1v25l7 2v4h-9l-4-3-1-3v-14l1-7h-6z" fill="#FFFFFE"/>
<path transform="translate(1029,494)" d="m0 0h11l1 1-1 25 8 1v5h-7l-5-2-2-3v-23h-5z" fill="#FFFFFE"/>
<path transform="translate(810,226)" d="m0 0h11l1 4v21l8 3-2 4-9-1-3-3-1-3v-20l-6-1z" fill="#FFFFFE"/>
<path transform="translate(382,381)" d="m0 0 8 1 3 2 1 7-4 7-7 1-3-1-2 5h-3l2-9 4-12z" fill="#3F5562"/>
<path transform="translate(464,401)" d="m0 0h3l-1 7-5 15-9-1-3-3v-8l4-6h6l3 2z" fill="#3E5462"/>
<path transform="translate(411,233)" d="m0 0 9 2 2 1-3 11-3 9v6l5 2-1 4-9-3-2-2v-7l6-18-5-1z" fill="#FFFFFE"/>
<path transform="translate(387,225)" d="m0 0 9 2 2 1-2 9-4 12 1 5 5 2-1 4-8-2-3-3-1-4 6-21-5-2z" fill="#FFFFFE"/>
<path transform="translate(1214,227)" d="m0 0h12l2 25 7 2v3h-11l-3-4-1-22h-5z" fill="#FFFFFE"/>
<path transform="translate(1240,226)" d="m0 0h11l1 26 8 1-1 4h-9l-4-4-1-23h-6z" fill="#FFFFFE"/>
<path transform="translate(1226,369)" d="m0 0 2 1v23h-10l-3-3-1-8 2-5 7-1 2 1z" fill="#28414F"/>
<path transform="translate(1182,376)" d="m0 0 7 1 3 4v8l-4 5h-6l-4-3-1-9 1-3z" fill="#374E5D"/>
<path transform="translate(1037,251)" d="m0 0h1l1 22 2 5v14l-1 4-1 31 13-4 3 1-10 6-5 8-2-3-1-30z" fill="#1DB87E"/>
<path transform="translate(1698,230)" d="m0 0 9 1 2 1-4 20v5l6 3-1 4-10-3-1-1v-10l3-15-5-2z" fill="#FFFFFE"/>
<path transform="translate(1674,224)" d="m0 0 10 2 1 2-4 18v6l6 2v4l-8-1-4-3v-10l3-15-5-1z" fill="#FFFFFE"/>
<path transform="translate(804,375)" d="m0 0h6l4 5v8l-5 5-7-1-2-3v-10z" fill="#415A67"/>
<path transform="translate(2030,923)" d="m0 0 5 1 3 3-1 5v1l3-1-1 6-4 7-5 1-2-3v-18z" fill="#99A6A9"/>
<path transform="translate(1232,370)" d="m0 0 5 1 3 8 4-9h4v22h-3l-1-13-3 6h-2l-3-8-1 16h-3z" fill="#435966"/>
<path transform="translate(1553,345)" d="m0 0 5 1 1 10v13l-3-1v-6h-8l-2 4h-3l3-9 3-5z" fill="#465B68"/>
<path transform="translate(1160,445)" d="m0 0h37l6 1v2l-12 1-4 1-3-1h-30l-12-2v-1z" fill="#26B780"/>
<path transform="translate(2021,923)" d="m0 0 5 1v3l-4 1h4l1 5-1 1h-8l8 1 1 5-4 1 4 2-3 3-4-1-3-3-2-5v-5l3-6z" fill="#919FA2"/>
<path transform="translate(258,340)" d="m0 0h7l5 5-2 10-2 4h-2v-2h-7l-3-2v-6l3-3 7 1 3 1-3-5-6-1z" fill="#344C5B"/>
<path transform="translate(1254,375)" d="m0 0h8l4 4v13l-4-1-2 1h-6l-2-2v-6l4-3h7l-1-4-9 1z" fill="#314C5B"/>
<path transform="translate(294,352)" d="m0 0 8 1 3 3-1 9-3 6h-2v-2h-7l-3-3 1-6 1-1h8l3 1-1-4-7-1z" fill="#37515E"/>
<path transform="translate(1189,451)" d="m0 0 17 1 7 1 22 1v1l-19 1h-49l1-2 15-1z" fill="#1DB87E"/>
<path transform="translate(1730,390)" d="m0 0h7l4 4v8l-3 7-1-3-2 1h-7l-2-4 1-4 1-2h9l2 1v-4l-9-2z" fill="#304957"/>
<path transform="translate(1726,507)" d="m0 0h17l11 2 28 2 4 2h-24l-18-3h-8l-11 3-8 2 1-3 5-2v-2z" fill="#204653"/>
<path transform="translate(767,375)" d="m0 0h6l3 3v14h-4-8l-2-3 1-6 2-1h9l-1-3-6-1h-4v-2z" fill="#455C69"/>
<path transform="translate(1065,645)" d="m0 0h7l3 2 1 7h-12l1 5h10v2l-2 1h-8l-4-4v-9z" fill="#334B5B"/>
<path transform="translate(991,642)" d="m0 0h7l3 4v5h-12l2 5h9l-1 3-7 1-6-6v-7z" fill="#3B5462"/>
<path transform="translate(1628,490)" d="m0 0h6l1 3 4 1 1 2h3v2h5v2l-4 1-6 3h-4l-5-3-1-5z" fill="#204552"/>
<path transform="translate(439,399)" d="m0 0 6 2 1 2v7l-8-1-4-1 2 5 1 1 7 1-1 2h-7l-5-5 1-9h2l1-3z" fill="#324C5A"/>
<path transform="translate(1603,356)" d="m0 0 8 1 5 1-1 3-9-2-1 6 9 2-1 3-9-2-1 8 6 1 4 1v3l-14-3 2-12z" fill="#344B59"/>
<path transform="translate(993,863)" d="m0 0 7 1 4 4-2 5v4l-2 2h-7l-3-3v-8l5-2v-2z" fill="#203A45"/>
<path transform="translate(262,429)" d="m0 0 9 2 66 22v2l-5-1-49-16-21-7z" fill="#162B35"/>
<path transform="translate(1311,374)" d="m0 0h8l3 3 1 6h-13l3 5h9v2l-2 1h-8l-4-5v-8z" fill="#334C5C"/>
<path transform="translate(925,870)" d="m0 0h7v21h-6l-1-1z" fill="#0E9F86"/>
<path transform="translate(2047,290)" d="m0 0h1v21l-5 2-3-9-1-11 2-2v2l4-2z" fill="#204552"/>
<path transform="translate(720,131)" d="m0 0h24v5h-30v-4z" fill="#EDF0EF"/>
<path transform="translate(1128,101)" d="m0 0h6l2 2 1 7-3 7-4 1-4-5v-8z" fill="#263D49"/>
<path transform="translate(1659,367)" d="m0 0h2v6l-1 2h7l2 2v7l-3 9-2-1 1-14-5-1-3 13h-3l1-9 3-13z" fill="#435867"/>
<path transform="translate(1825,195)" d="m0 0 7 3-2 1-1 4-2 3v-2l-5 3-6-1-3-5 3-2 4-1v-2z" fill="#204653"/>
<path transform="translate(1710,519)" d="m0 0h3v8l-1 4 1 6h2l-1 4-2-2-1 3-6 1v-3h2v-7l-2-5 1-5 4-3z" fill="#204552"/>
<path transform="translate(744,369)" d="m0 0h15v3h-6v20h-4v-20h-6z" fill="#5E707D"/>
<path transform="translate(1514,106)" d="m0 0 3 1-10 5-3 4-4 16h-3l-1-10 2-2 3-9 4-3z" fill="#CD3735"/>
<path transform="translate(1568,348)" d="m0 0 12 2v2h-5l-2 10-1 7 4 1v2l-10-1-2-1v-2h4l3-17h-3z" fill="#2F4653"/>
<path transform="translate(1124,867)" d="m0 0 3 1v4l-7 2-13 9-5 1-11-7-7-6 1-2 14 10 5 2 11-7z" fill="#284757"/>
<path transform="translate(313,353)" d="m0 0h7l5 3-2 2-4-2h-4v5l7 6v5l-3 3h-8l-4-3v-2l4 2h6l1-6-5-2-2-2v-7h2z" fill="#314856"/>
<path transform="translate(581,106)" d="m0 0 4 1-10 4-3 4-4 17-3 1-1-9h2l1-9 3-6z" fill="#CD3735"/>
<path transform="translate(747,273)" d="m0 0 3 1 3 3v-4l4 1v13l-3 1-1-6h-3l-2 6h-2v-14z" fill="#FFFFFE"/>
<path transform="translate(1726,249)" d="m0 0h5l2 3-1 8-2 3h-5l-2-2v-7z" fill="#42566A"/>
<path transform="translate(1471,106)" d="m0 0h2l3 9 4 3-6 1-2 6h-2l-3-4-5-2 5-4 3-3z" fill="#98A5A7"/>
<path transform="translate(1675,378)" d="m0 0 3 1-1 13h4l4-12 3 1-3 15-10-1-2-2v-8z" fill="#3F5462"/>
<path transform="translate(1294,931)" d="m0 0h1v6l4 1-1 4-2 3-10-1 1-4 3-8z" fill="#204653"/>
<path transform="translate(964,539)" d="m0 0 4 1 1 3 3-4 3 1v11l-1 3h-2l-1-6h-4l-1 6h-2z" fill="#FFFFFE"/>
<path transform="translate(1147,371)" d="m0 0h5l3 4h-9l-2 3v8l2 6 9-1-4 4-6-1-3-3-2-4v-9l4-6z" fill="#475C69"/>
<path transform="translate(1621,366)" d="m0 0 9 1 2 1v11l-2 6-3-1 2-14h-5l-4 12-3-1 3-14z" fill="#425965"/>
<path transform="translate(245,329)" d="m0 0 8 2-1 8-4 10-3 3-7-1-3-2v-4h2l2 3 6 1 2-9 2-6-4-2z" fill="#324956"/>
<path transform="translate(1274,238)" d="m0 0 4 2 2 4-1 7-5 2-3-2-1-7 2-5z" fill="#48C885"/>
<path transform="translate(1185,229)" d="m0 0h2v10l3-1 2 2-1 3v7l3 6-1 2-3-3h-4l-1-6z" fill="#2FB683"/>
<path transform="translate(1006,879)" d="m0 0 1 4-6 7-6 2-12-1-6 1 1-5h2l1-2v3l7-1 7 1 6-3z" fill="#1BB380"/>
<path transform="translate(422,388)" d="m0 0 5 1 3 1-2 10-4 9-1 1h-8l-3-2 1-4 3 3 5 1 3-10 1-6-3-1z" fill="#405663"/>
<path transform="translate(436,256)" d="m0 0h6l1 1v7l-3 5h-6l-1-7z" fill="#C8413F"/>
<path transform="translate(1346,444)" d="m0 0h11l10 2-1 3-11 2-9-2-3-3z" fill="#38CF7E"/>
<path transform="translate(1025,637)" d="m0 0h3l1 7h7l1 2v15h-2l-1-14h-5l-1 2-1 11h-2z" fill="#344C5A"/>
<path transform="translate(967,636)" d="m0 0h17v3h-7v19h-3v-19l-7-1z" fill="#3D5463"/>
<path transform="translate(1086,497)" d="m0 0h5l1 5-1 15h-5z" fill="#FFFFFE"/>
<path transform="translate(1275,446)" d="m0 0h23l2 1v2l-9 2h-9l-7-1z" fill="#39D07F"/>
<path transform="translate(867,228)" d="m0 0h5l1 4-1 15-4 1-1-1-1-18z" fill="#FFFFFE"/>
<path transform="translate(539,106)" d="m0 0 2 1 3 8 4 3-6 2-4 5-3-4-5-2 4-3 3-3z" fill="#98A5A7"/>
<path transform="translate(843,239)" d="m0 0 4 1 2 3v7l-2 3-5-1-2-2v-7z" fill="#00FFD0"/>
<path transform="translate(632,81)" d="m0 0h8l1 2-13 4-3 4-1 12-3-4-1-7 3-6 5-4z" fill="#1D333E"/>
<path transform="translate(1062,508)" d="m0 0 4 1 2 3v6l-3 4-5-1-1-2v-7z" fill="#98A5A7"/>
<path transform="translate(336,258)" d="m0 0h3l2 4 2-2h3l-2 10-2 5h-2v-7l-3-1v-3l-3 8-2-2z" fill="#EAE8E7"/>
<path transform="translate(1297,226)" d="m0 0 5 1v19l-4 1-1-2z" fill="#FFFFFE"/>
<path transform="translate(1422,151)" d="m0 0h2v4h6l1 2v6l-2 3h-7z" fill="#D5DADA"/>
<path transform="translate(405,383)" d="m0 0h2l-1 6h5l1 3-6-1-3 10v2l4 1v2l-7-2-1-6 2-9-2-1v-2l5-1z" fill="#495E6B"/>
<path transform="translate(841,375)" d="m0 0h7l1 3-7 1 1 3 7 3v5l-3 3h-7l-2-3h8l1-4-8-2-1-6z" fill="#445D6A"/>
<path transform="translate(1183,378)" d="m0 0 5 1 1 2v7l-1 3-5 1-3-5 1-7z" fill="#F8F9F8"/>
<path transform="translate(789,369)" d="m0 0h6v2l-5 1-1 4h6v2h-5l-1 14h-3v-14h-4v-2h5v-5z" fill="#3E5662"/>
<path transform="translate(465,252)" d="m0 0 5 2-5 15-2 3-3-1 1-9z" fill="#FFFFFE"/>
<path transform="translate(1864,245)" d="m0 0 6 1 15 8 3 5v2h2l4 8h-3l-3-3-2-7h-2v-2l-5-2-6-3-2-3-7-3z" fill="#204552"/>
<path transform="translate(715,151)" d="m0 0h2l1 4h5l1 1v7l-2 3h-6l-1-3z" fill="#D9DEDE"/>
<path transform="translate(275,345)" d="m0 0h3l1 13h2l2-5h2l1-4h3l-2 5-7 9h-5z" fill="#4B5F6D"/>
<path transform="translate(815,94)" d="m0 0h3l-2 4-3 3-2 4h-2v6h-3l-2-3-2-11h2l2 4h2l5-6z" fill="#182A33"/>
<path transform="translate(1480,80)" d="m0 0h2l1 7 5 1-2 3h-3l-1 7h-2l-2-7-4-1v-2l4-1z" fill="#CD3735"/>
<path transform="translate(988,867)" d="m0 0 2 1 1 8 2 2h7l1 4-1 1h-6l-6-4-3-5 1-6z" fill="#19B27F"/>
<path transform="translate(1017,544)" d="m0 0 6 2 1 2v7l-1 1h-7l-2-1v-6l2-1-1-3z" fill="#F4F5F4"/>
<path transform="translate(1696,382)" d="m0 0 7 1 2 3-9-1v4l6 2 1 1v5l-3 3-7-1-2-1 1-3 4 2h5l-1-3-6-4-1-1v-5z" fill="#334C5A"/>
<path transform="translate(808,277)" d="m0 0h10l1 2v9l-4-1-3 1v-8h-2v8h-2z" fill="#FFFFFE"/>
<path transform="translate(1026,545)" d="m0 0h10l1 2v9h-3l-1-2-1 2h-2l-1-6-1 6h-2z" fill="#FFFFFE"/>
<path transform="translate(1219,378)" d="m0 0h5l2 3v7l-2 3-5-1-1-1v-10z" fill="#F0F2F1"/>
<path transform="translate(804,378)" d="m0 0h6l1 2v8l-1 2-5 1-2-2v-10z" fill="#FBFCFB"/>
<path transform="translate(1644,365)" d="m0 0h2v6l5 1-1 2-5-1-2 11 5 2v2l-7-1-1-1v-8l1-5-3-3h5z" fill="#3D5360"/>
<path transform="translate(1753,243)" d="m0 0 5 1-1 8-3 11-4-1 1-10z" fill="#FFFFFE"/>
<path transform="translate(1770,394)" d="m0 0h3v5l6 2v1h-7l-2 12h5v2h-5l-3-2v-7l2-7-4-2h5z" fill="#3B5562"/>
<path transform="translate(823,277)" d="m0 0h6l2 2-1 5h-5l4 1 2 2-2 2h-5l-3-3v-7z" fill="#EBFFFA"/>
<path transform="translate(797,277)" d="m0 0h7l2 3v7l-4 2-5-1-1-5 2-2 4-1h-5z" fill="#E0FFF8"/>
<path transform="translate(548,80)" d="m0 0 2 1 1 5 4 2v2l-4 1-2 7-2-1-1-6-5-1v-2l5-1z" fill="#CD3735"/>
<path transform="translate(1044,644)" d="m0 0h8v9l-1 6h6v2h-14v-2h5v-13h-4z" fill="#4F6272"/>
<path transform="translate(1750,394)" d="m0 0 7 1 2 1v2h-8l1 3 5 3 1 4-2 3h-9l-2-1v-3l10 2-1-4-5-2-1-7z" fill="#3C5461"/>
<path transform="translate(1294,369)" d="m0 0h2v5h6v3h-6l1 11 6 1v2h-8l-2-7v-8l-4-1 4-1z" fill="#566C74"/>
<path transform="translate(1042,545)" d="m0 0 6 1 1 6h-7v2l7-1-1 3-6 1-3-3v-7z" fill="#F8F8F8"/>
<path transform="translate(455,407)" d="m0 0 5 1 1 4-3 7-5 1-1-1v-8z" fill="#F9F9F9"/>
<path transform="translate(1273,375)" d="m0 0h9l1 2-8 1-1 3 8 2 2 1v5l-3 3h-8l-1-3h8l1-4-7-1-2-2v-6z" fill="#364E5B"/>
<path transform="translate(1289,154)" d="m0 0 5 2 1 6-4 4-4-1-2-3 1-6z" fill="#DBE0E0"/>
<path transform="translate(1144,151)" d="m0 0h1v14l-6 1-3-4 1-6 1-1h5z" fill="#86949A"/>
<path transform="translate(385,384)" d="m0 0 5 1 1 5-3 6-4 1-2-2v-7z" fill="#F6F7F7"/>
<path transform="translate(823,371)" d="m0 0h2v5h7v2h-6v12h5v2h-7l-1-1v-13h-5v-2h5z" fill="#284452"/>
<path transform="translate(1240,277)" d="m0 0h9l1 1v10h-2v-9h-2v9h-2l-1-3-1 3h-2l-1-2v-8z" fill="#FFFFFE"/>
<path transform="translate(1186,274)" d="m0 0 2 1v14h-2v-9h-2v4h-2v-3h-2v8h-2v-14h3l1 4h2v-4z" fill="#FFFFFE"/>
<path transform="translate(982,792)" d="m0 0h8l1 2v9h-8l-2-2 1-4 1-1h5v-2h-6z" fill="#E4F5EE"/>
<path transform="translate(922,788)" d="m0 0h6l1 2-6 2v7h3l1-2-3-1 1-2h4v7l-2 2-6-1-2-3v-7z" fill="#FFFFFE"/>
<path transform="translate(816,155)" d="m0 0h6l1 1v7l-2 3-6-1-1-8z" fill="#E4E7E7"/>
<path transform="translate(1712,386)" d="m0 0h6l1 1-1 14 4 2v1h-7l-7-2v-2h6l1-8 1-4h-4z" fill="#455B68"/>
<path transform="translate(365,375)" d="m0 0 7 1-3 15 3 3-7-1-6-3v-1h5l3-7v-4l-2-1z" fill="#49606B"/>
<path transform="translate(1188,155)" d="m0 0h6l1 1v7l-3 3-5-1-1-8z" fill="#273F4C"/>
<path transform="translate(768,154)" d="m0 0 5 2 1 7-4 3-4-1-1-2v-6z" fill="#829197"/>
<path transform="translate(2021,923)" d="m0 0 5 1v3l-4 1h4l1 5-1 1h-10l1-7z" fill="#9AA0A2"/>
<path transform="translate(857,376)" d="m0 0h7l1 14 5 1v2h-14v-2l4-1 1-12h-4z" fill="#506373"/>
<path transform="translate(383,277)" d="m0 0 7 2 1 4-3 7-8-3 1-5 4-1 3 1v-2l-5-1z" fill="#F3E3E2"/>
<path transform="translate(471,411)" d="m0 0 7 1-4 15 5 1v2l-9-2-5-2v-2l6 1 3-12-3-1z" fill="#435966"/>
<path transform="translate(1230,277)" d="m0 0h5l2 2v9h-9v-6l6-1v-2l-6 1v-2z" fill="#E2F2EC"/>
<path transform="translate(1008,792)" d="m0 0h6l2 2v4h-7v2h7l-2 3-7-1-1-2v-6z" fill="#EEF7F4"/>
<path transform="translate(1010,643)" d="m0 0h8v3h-7l-1 2v7l1 3 8-1-1 3h-8l-4-4v-9z" fill="#264352"/>
<path transform="translate(1675,277)" d="m0 0 7 1v8l-2 3-7-2-1-4 1-2h7v-2h-6z" fill="#DFE2E4"/>
<path transform="translate(1626,262)" d="m0 0 3 1v5h2l1-4h4l-2 11-1 3h-2l1-9-3 3-2-2-2 6h-2z" fill="#FFFFFE"/>
<path transform="translate(1095,792)" d="m0 0h6l2 2v4l-7 1 7 1-2 3-7-1-1-2v-6z" fill="#EEF6F3"/>
<path transform="translate(958,792)" d="m0 0h7l2 5-1 1h-7v2h7v2l-6 1-4-4 1-6z" fill="#EFF8F5"/>
<path transform="translate(933,792)" d="m0 0h7l2 3v3l-7 1 3 1h3v2l-6 1-3-2v-7z" fill="#EEF8F4"/>
<path transform="translate(1081,788)" d="m0 0h3l1 6 3-3h2v2h-2l1 6 1 4-3-1-2-3-2 4h-2z" fill="#FFFFFE"/>
<path transform="translate(1254,277)" d="m0 0h7l1 6h-7l1 2h6v2l-7 1-3-3 1-7z" fill="#E9F6EF"/>
<path transform="translate(714,137)" d="m0 0h31l-3 2-4 1h-19l-5-1z" fill="#14262F"/>
<path transform="translate(1440,429)" d="m0 0h2l-2 8h-3l-6 4-11 2-8-1 1-2 14-1 8-4z" fill="#2CBA81"/>
<path transform="translate(1113,155)" d="m0 0h6l2 2v9h-7l-2-1v-5l6-3h-6z" fill="#9DA8AC"/>
<path transform="translate(902,155)" d="m0 0h7l1 2v9h-7l-2-2 1-5 5-2h-5z" fill="#A3ADB1"/>
<path transform="translate(942,110)" d="m0 0h9v5l-4 4h-5l-1-2v-6z" fill="#243A45"/>
<path transform="translate(332,364)" d="m0 0 7 1 2 4-7-2-3 2-1 7 3 3 4 1v2h-6l-4-4v-9l1-2h2v-2z" fill="#435A66"/>
<path transform="translate(1440,312)" d="m0 0h1v30h-1l-1-11-5-8-7-4-3-1v-2l5 1 11 6z" fill="#34B585"/>
<path transform="translate(406,286)" d="m0 0h6l2 2v5l-8-1 1 2 5 1v2l-7-1-1-1v-6z" fill="#F6E9E8"/>
<path transform="translate(1097,110)" d="m0 0h9v5l-4 4h-5l-1-7z" fill="#243B47"/>
<path transform="translate(1033,788)" d="m0 0h6v3l-5-1v3l5 2 1 1v5l-3 2-6-1 1-3h5l-1-2-5-3 1-5z" fill="#FFFFFE"/>
<path transform="translate(1224,155)" d="m0 0h7l1 1v10h-7l-2-3 1-4 6-1v-2l-6 1z" fill="#9DA9AD"/>
<path transform="translate(759,276)" d="m0 0 3 2 2 3 2-4h3l-3 10-3 5h-4v-2l2-1-1-6-2-6z" fill="#FFFFFE"/>
<path transform="translate(1e3 544)" d="m0 0h8l1 1v10h-3v-9l-2 1-1 8h-3z" fill="#FFFFFE"/>
<path transform="translate(1701,282)" d="m0 0 5 2 1 1v5l-8-2 2 3 5 1-1 2-6-1-2-2 1-7z" fill="#E5E8E9"/>
<path transform="translate(785,277)" d="m0 0h7l1 1v10h-3l-1-8h-1l-1 8h-3v-10z" fill="#FFFFFE"/>
<path transform="translate(977,543)" d="m0 0 3 1 2 5 3-6h2l-1 5-5 10-3 1-2-2 3-2z" fill="#FFFFFE"/>
<path transform="translate(394,281)" d="m0 0 9 2-1 9-1 2h-2l1-9-3 8-2-1 2-9h-2l-1 6-1 2h-2l1-6z" fill="#FFFFFE"/>
<path transform="translate(1066,154)" d="m0 0 5 2 1 5h-8l1 2 6 1-2 2-5-1-2-2 1-7z" fill="#A4AEB2"/>
<path transform="translate(694,154)" d="m0 0 5 2 1 5h-8l1 2 6 1-2 2-5-1-2-2 1-7z" fill="#A5B0B5"/>
<path transform="translate(1052,323)" d="m0 0 3 1-10 6-5 8-2-3v-8l8-2z" fill="#24B87F"/>
<path transform="translate(855,154)" d="m0 0 5 2 1 5h-8l1 2 6 1-1 2h-5l-3-4 1-5z" fill="#A8B2B6"/>
<path transform="translate(1686,279)" d="m0 0 8 1 1 1-1 10h-2l1-9h-2l-1 8h-2l1-9h-2l-1 8h-2l1-9z" fill="#FFFFFE"/>
<path transform="translate(928,155)" d="m0 0h6l1 6-7 1v2l7-1-1 3h-6l-2-2v-7z" fill="#A6B0B4"/>
<path transform="translate(1349,155)" d="m0 0h6l2 3v3h-8l1 2 6 1-1 2h-5l-3-4 1-6z" fill="#AAB4B8"/>
<path transform="translate(1250,155)" d="m0 0h6l2 3v3h-8l1 2 6 1-2 2-5-1-2-2 1-7z" fill="#A7B1B6"/>
<path transform="translate(878,155)" d="m0 0h6l2 3v3h-8l1 2 6 1-2 2-5-1-2-2 1-7z" fill="#A3ADB2"/>
<path transform="translate(1436,155)" d="m0 0h6l2 3v3h-8l1 2 6 1-2 2-5-1-2-2 1-7z" fill="#A6B0B5"/>
<path transform="translate(641,100)" d="m0 0 6 1 4 3v13l-3 1-1-10-4-5-2-1z" fill="#192B35"/>
<path transform="translate(548,117)" d="m0 0 3 1v2l-7 3-4 9-2-1-1-8 3-1 3-4z" fill="#CC3836"/>
<path transform="translate(626,105)" d="m0 0 7 1 6 3 2 2v5l-3 2h-7v-2l6-2v-2l-11-6z" fill="#21343F"/>
<path transform="translate(1601,366)" d="m0 0 1 2h2l-1 8 6 1 4 1v3l-14-3z" fill="#445967"/>
<path transform="translate(1164,370)" d="m0 0 2 1 1 19 5 1v3h-5l-3-2-1-19-4-2z" fill="#334A55"/>
<path transform="translate(1491,759)" d="m0 0 2 1v6l-3 1-1 3-2-3v3l-5-1 2-5h3l2-4z" fill="#204552"/>
<path transform="translate(349,370)" d="m0 0h2v3l2-1h6l2 1v3l-9-1-3 6-2 5h-2v-5l3-9z" fill="#405764"/>
<path transform="translate(1659,367)" d="m0 0h2v6h-2v9l-2 8h-3l1-9 3-13z" fill="#3C535F"/>
<path transform="translate(1190,278)" d="m0 0h3l1 6h2l1-5 3-1-3 11-3 4-4-1 3-2-1-5z" fill="#FFFFFE"/>
<path transform="translate(2033,192)" d="m0 0 7 7v4l-5 4-3-2z" fill="#204653"/>
<path transform="translate(965,155)" d="m0 0h5l2 2v4l-7 1v2h7l-1 2-7-1-1-2v-6z" fill="#A4AEB2"/>
<path transform="translate(657,81)" d="m0 0h21l1 2-6 1h-20l1-2z" fill="#12222A"/>
<path transform="translate(861,277)" d="m0 0h5l1 3-5-1 3 3 3 2-1 4-7 1-1-3h5l-5-4 1-4z" fill="#FFFFFE"/>
<path transform="translate(671,95)" d="m0 0 3 4 1 7v8l-2 9-2-2z" fill="#12222A"/>
<path transform="translate(1253,81)" d="m0 0h7v9h-7z" fill="#FDFDFC"/>
<path transform="translate(1e3 869)" d="m0 0 3 1 1 8-3 6-4 2 2-8-1-2z" fill="#234553"/>
<path transform="translate(371,273)" d="m0 0 7 2 1 4-3 7-2-1 2-9h-3l-2 8-3-1z" fill="#FFFFFE"/>
<path transform="translate(347,265)" d="m0 0h2l2 7 3-4 3 1-9 11-5-1 4-1z" fill="#FFFFFE"/>
<path transform="translate(1480,117)" d="m0 0 2 1 1 2-7 2-3 9-2 1-1-7h2l2-6z" fill="#CD3735"/>
<path transform="translate(945,792)" d="m0 0h8l1 3v7l-3 1v-9h-3l-1 9h-2z" fill="#FFFFFE"/>
<path transform="translate(1079,546)" d="m0 0 5 1 1 2-4 1 4 2-1 5-1 1h-5l-2-3 6 1-1-2-4-2 1-5z" fill="#FFFFFE"/>
<path transform="translate(775,103)" d="m0 0 2 3 2 9 2 6 6 2v2l-6-1-4-5-3-9z" fill="#21333D"/>
<path transform="translate(545,82)" d="m0 0h1v5l-5 1v2l5 1 1 6-6-1-2-2 1-7 3-1z" fill="#14262E"/>
<path transform="translate(991,642)" d="m0 0h7l3 4v5h-12v-2h10l-1-4h-6l-4 2v-3z" fill="#304A59"/>
<path transform="translate(1310,376)" d="m0 0h2l-2 6h8v1h-8l3 5h9v2l-2 1h-8l-4-5v-8z" fill="#243F4D"/>
<path transform="translate(1346,100)" d="m0 0h6l3 3v3h-12l1-4z" fill="#465B65"/>
<path transform="translate(788,100)" d="m0 0h6l3 3v3h-12l1-4z" fill="#5B6C75"/>
<path transform="translate(2038,932)" d="m0 0h2l-1 6-4 7-5 1-1-1v-9h1v7h2v-2l4-4 1-4z" fill="#359287"/>
<path transform="translate(1124,867)" d="m0 0 3 1v4l-7 2-10 7h-2l1-3 11-8z" fill="#204452"/>
<path transform="translate(1047,788)" d="m0 0 3 3 3 2-3 1-1 7 4 1-5 1-2-2v-7l-3-1z" fill="#FFFFFE"/>
<path transform="translate(997,788)" d="m0 0h2v3l4 1-1 2h-3l1 6 3 1v2h-5l-2-6v-3h-2v-2l2-2z" fill="#FFFFFE"/>
<path transform="translate(1637,268)" d="m0 0 3 1v6l5-5h2l-2 5-6 8h-4l1-2 2-1z" fill="#FFFFFE"/>
<path transform="translate(841,155)" d="m0 0h7v11l-3 4-5-1v-1l5-1v-10h-3l-1 6 3 3-4-1-1-1v-7z" fill="#D4D9DA"/>
<path transform="translate(1119,792)" d="m0 0h7v2l-4 1 5 3-1 4-6 1-2-1v-2h5l-5-4z" fill="#FFFFFE"/>
<path transform="translate(1197,376)" d="m0 0 3 1 1 13 5 1-1 2h-6l-2-2z" fill="#334857"/>
<path transform="translate(985,154)" d="m0 0 1 3-2 8-4-1-1 2-3-1-2-10h2l2 5 1-2h2l1 2z" fill="#BDC5C8"/>
<path transform="translate(1065,546)" d="m0 0h5l1 1v8l3 1v1h-10v-2h3v-6l-2-1z" fill="#FFFFFE"/>
<path transform="translate(767,375)" d="m0 0h6l3 3v14h-2v-2l-2-1h2l-1-10-6-1h-4v-2z" fill="#21424F"/>
<path transform="translate(1552,348)" d="m0 0h2l-4 12h-2l-2 6h-3l3-9 3-5z" fill="#35505E"/>
<path transform="translate(1662,274)" d="m0 0 7 1 1 1-1 10-3-1 2-8h-4l-1 7h-3z" fill="#F8F9F8"/>
<path transform="translate(1893,240)" d="m0 0 3 1 1 6-2 3-4-1-3-2v-4l5-1z" fill="#204653"/>
<path transform="translate(1232,370)" d="m0 0h4v2h-2l1 21h-3z" fill="#405562"/>
<path transform="translate(929,104)" d="m0 0 1 3h4l-1 13h-3-1z" fill="#172933"/>
<path transform="translate(1558,688)" d="m0 0h6l-2 7-4 2h-2l-1-5z" fill="#204552"/>
<path transform="translate(1330,374)" d="m0 0h2v2h2v-2h7v2l-7 2-1 1-1 12h-2z" fill="#294452"/>
<path transform="translate(1292,276)" d="m0 0h5l1 2h-5v2l5 2v4l-1 1h-6l-1-2h6v-2l-5-1-1-4z" fill="#FFFFFE"/>
<path transform="translate(188,239)" d="m0 0 1 4-8 24-2-4 4-11 4-12z" fill="#162C35"/>
<path transform="translate(1042,438)" d="m0 0 4 2 5 5-4 1 5 7-4-2-4-5-2-3z" fill="#26B781"/>
<path transform="translate(1051,151)" d="m0 0h2l1 6 4-2-2 5 4 6-4-2-3-3v5h-2z" fill="#B2BBC1"/>
<path transform="translate(642,151)" d="m0 0h2l1 6 4-2-2 5 4 6-4-2-3-3v5h-2z" fill="#B4BCC2"/>
<path transform="translate(552,109)" d="m0 0 7 1 4 6v11h-1l-3-10-5-5z" fill="#342930"/>
<path transform="translate(940,100)" d="m0 0h9l2 4-13 1-1-4z" fill="#253944"/>
<path transform="translate(1057,792)" d="m0 0h5l1 8 3 1v2h-10v-2h3v-7h-2z" fill="#FFFFFE"/>
<path transform="translate(1507,739)" d="m0 0h5l1 2-2 5-6 2-2-5z" fill="#204653"/>
<path transform="translate(1178,379)" d="m0 0 3 1v7l2 4 5 1v2h-6l-4-3-1-9z" fill="#435965"/>
<path transform="translate(1621,366)" d="m0 0 7 2-4 2-4 12-3-1 3-14z" fill="#3A525F"/>
<path transform="translate(846,277)" d="m0 0h6l1 4v4l3 1v2h-10v-2l3-1 1-5-4-2z" fill="#FFFFFE"/>
<path transform="translate(1207,376)" d="m0 0h3v17h-2v-2h-2z" fill="#354A5B"/>
<path transform="translate(1257,383)" d="m0 0h6l-1 6-1 1h-6v-6z" fill="#EEF0F0"/>
<path transform="translate(1147,371)" d="m0 0h5l3 4h-9l-3 6-1 5h-1v-10l3-4z" fill="#3B525E"/>
<path transform="translate(245,329)" d="m0 0 8 2-1 8-2 3h-3l2-8-4-2z" fill="#3C5360"/>
<path transform="translate(443,297)" d="m0 0 5 1v3l-4-2v3l4 2-1 4h-6l-2-1v-2l6 2v-3l-4-2 1-4z" fill="#FFFFFE"/>
<path transform="translate(1220,277)" d="m0 0 4 1v10h-2l-1-8h-2v7l-3 1v-10z" fill="#FFFFFE"/>
<path transform="translate(2035,257)" d="m0 0 2 1 3 10v13l-2-1-1-11-2-4z" fill="#204653"/>
<path transform="translate(632,81)" d="m0 0h8l1 2-13 3-6 3 2-4 4-3z" fill="#15262F"/>
<path transform="translate(1569,362)" d="m0 0 3 2v5l4 1v2l-10-1-2-1v-2h4z" fill="#4D6170"/>
<path transform="translate(1737,290)" d="m0 0 5 1v2l-5-1 5 5-2 5-6-1v-3l5 2v-3l-4-2-1-2z" fill="#FFFFFE"/>
<path transform="translate(777,155)" d="m0 0h8l1 2v9h-2l-1-9h-3l-1 9h-2z" fill="#C4CBCC"/>
<path transform="translate(1387,862)" d="m0 0 4 2-4 4-4 2-2 2-1-5 4-4z" fill="#204653"/>
<path transform="translate(1578,668)" d="m0 0 2 1 1 4-1 3-7 1-1-3 2-4z" fill="#204653"/>
<path transform="translate(1279,276)" d="m0 0 5 1v8h3v2h-10l2-2h1l1-7-3-1z" fill="#FFFFFE"/>
<path transform="translate(1299,154)" d="m0 0h1l1 10h4v-9h2v11h-7l-2-3v-8z" fill="#CBD2D2"/>
<path transform="translate(1407,842)" d="m0 0 3 2-1 4-5 3-3 1v-6l5-1z" fill="#204653"/>
<path transform="translate(769,383)" d="m0 0h4l-1 7h-6l-1-5z" fill="#EFF1F1"/>
<path transform="translate(842,156)" d="m0 0 4 1v8l-2 1-4-3 1-6z" fill="#334A56"/>
<path transform="translate(1071,792)" d="m0 0h6v2h-5v6h5l-1 3-6-1-1-2v-6z" fill="#FFFFFE"/>
<path transform="translate(405,383)" d="m0 0h2l-1 6h5l1 3-5-1-3-1v2h-2l-1-3-2-1v-2l5-1z" fill="#3D5361"/>
<path transform="translate(1216,377)" d="m0 0 2 2 1 10 1 2-3 1-3-5 1-8z" fill="#4E6671"/>
<path transform="translate(431,406)" d="m0 0 5 1-2 1 2 5 1 1 7 1-1 2h-7l-5-5z" fill="#415968"/>
<path transform="translate(1730,399)" d="m0 0h6l2 2-2 4h-6l-1-5z" fill="#FAFBFA"/>
<path transform="translate(804,375)" d="m0 0h6l4 5v8l-3-1-1-9-8-1z" fill="#425A69"/>
<path transform="translate(168,298)" d="m0 0h1l-1 8-4 10h-2l2-9z" fill="#13262F"/>
<path transform="translate(864,155)" d="m0 0h7l2 4v6l-2 1-1-9h-3l-1 9h-2z" fill="#DADFDF"/>
<path transform="translate(529,120)" d="m0 0h6l2 2 1 9-5-5z" fill="#292830"/>
<path transform="translate(1089,893)" d="m0 0h12l-1 2h-3v2l-11 1-2 1-1-3 6-2z" fill="#204653"/>
<path transform="translate(2021,872)" d="m0 0 5 1 2 4v3h-2v-2l-7 2z" fill="#3F515C"/>
<path transform="translate(1768,402)" d="m0 0 3 1-1 11h5v2h-5l-3-2v-7z" fill="#3F5865"/>
<path transform="translate(293,361)" d="m0 0h6l2 1-2 5h-5l-2-2z" fill="#FAFAFA"/>
<path transform="translate(257,349)" d="m0 0h6l2 1-1 4-1 1h-5l-2-4z" fill="#F7F8F8"/>
<path transform="translate(430,293)" d="m0 0 5 1-1 9 2 1-1 2-8-3v-2l4 1v-7z" fill="#FFFFFE"/>
<path transform="translate(1302,227)" d="m0 0h2l1 4v10l-2 4-1-2z" fill="#1DB87E"/>
<path transform="translate(755,151)" d="m0 0 2 1v2h3v2h-3l1 8h3v2h-5l-1-1v-9l-3-1h3z" fill="#CBD2D2"/>
<path transform="translate(1006,100)" d="m0 0h5l3 5h-12l2-4z" fill="#233742"/>
<path transform="translate(1371,875)" d="m0 0 2 1 1 5-2 4-4 1-2-3 4-5z" fill="#204653"/>
<path transform="translate(453,405)" d="m0 0h6l2 4-6-1-4 9-2-1 1-7z" fill="#2D4653"/>
<path transform="translate(1675,378)" d="m0 0 3 1-1 14h-4v-8z" fill="#425766"/>
<path transform="translate(748,92)" d="m0 0h7l-1 3v26h-1l-1-25-5-2z" fill="#12222A"/>
<path transform="translate(1107,792)" d="m0 0h8v2h-5v8l-3 1z" fill="#FFFFFE"/>
<path transform="translate(1066,647)" d="m0 0h6l2 5h-10l1-4z" fill="#F0F2F1"/>
<path transform="translate(386,382)" d="m0 0 5 1 2 1 1 7-2 4-2-1v-8l-5-2z" fill="#374F5C"/>
<path transform="translate(1294,377)" d="m0 0h2l1 11 6 1v2h-8l-1-1z" fill="#314956"/>
<path transform="translate(1724,287)" d="m0 0 5 1-2 9 3 1-4 1-6-2v-1h5l1-7-3-1z" fill="#FFFFFE"/>
<path transform="translate(1288,156)" d="m0 0 4 1 1 1v5l-5 1-1-1v-6z" fill="#27404D"/>
<path transform="translate(817,156)" d="m0 0 4 1 1 1v5l-5 1-1-1v-6z" fill="#263E4A"/>
<path transform="translate(719,156)" d="m0 0h3l1 7-5 1-1-1v-6z" fill="#2B4250"/>
<path transform="translate(1188,155)" d="m0 0h6l1 1v7l-3 3-5-1-1-8zm1 1-1 1v6l5 1 1-1v-5l-2-2z" fill="#E4E7E7"/>
<path transform="translate(668,151)" d="m0 0h2v3l4 1-4 1 1 8 3 2-5-1-1-1v-8l-3-1h3z" fill="#C1C9CA"/>
<path transform="translate(1122,891)" d="m0 0 3 2v4l-7 3-3-3v-2l7-1z" fill="#204653"/>
<path transform="translate(971,792)" d="m0 0h8v2h-5v7l-1 2h-2z" fill="#FFFFFE"/>
<path transform="translate(1313,376)" d="m0 0h5l2 2v3h-10l2-4z" fill="#F2F4F3"/>
<path transform="translate(1653,233)" d="m0 0h6l2 5-2 1-8-2z" fill="#4F6273"/>
<path transform="translate(1960,57)" d="m0 0 2 1-2 5-5 1-1 2-3-1 1-4 4-2z" fill="#204552"/>
<path transform="translate(2027,931)" d="m0 0h1v12l-8-2-1-2 7 1v-5h-9l1-2h8z" fill="#FFFFFE"/>
<path transform="translate(926,861)" d="m0 0h6v6h-6l-1-5z" fill="#0E9F86"/>
<path transform="translate(1526,723)" d="m0 0 3 2-2 5-4 2-2-4 2-4z" fill="#204552"/>
<path transform="translate(1030,644)" d="m0 0h6l1 2v15h-2l-1-14z" fill="#23424F"/>
<path transform="translate(992,644)" d="m0 0 6 1 1 4-5 1-5-1 2-4z" fill="#EFF1F0"/>
<path transform="translate(437,402)" d="m0 0 7 1v5l-9-2z" fill="#F2F3F3"/>
<path transform="translate(1728,397)" d="m0 0h7l1 2-6 1v4l4 2-6 1-2-4 1-4z" fill="#395260"/>
<path transform="translate(1256,381)" d="m0 0h7v1h-6v2h-2v6l4 1-5 1-2-2v-6z" fill="#3E5766"/>
<path transform="translate(678,151)" d="m0 0h2l1 4 4 1-4 3-1 7h-2z" fill="#A6B1B4"/>
<path transform="translate(1135,120)" d="m0 0h2v5l-3 3h-8v-1l5-1v-1l-5-1v-1l9-1z" fill="#3A505E"/>
<path transform="translate(977,874)" d="m0 0h3l3 10-2 4-2-1-2-9z" fill="#16AD81"/>
<path transform="translate(1424,826)" d="m0 0 3 1-2 5-2 2-4-1 1-4z" fill="#204653"/>
<path transform="translate(1006,647)" d="m0 0h1v8l4 1v2l8-1-1 3h-8l-4-4z" fill="#4A606F"/>
<path transform="translate(471,411)" d="m0 0 7 1-3 12-3-2 2-9-3-1z" fill="#415664"/>
<path transform="translate(367,386)" d="m0 0h1l1 5 3 3-7-1-6-3v-1h5z" fill="#3C525F"/>
<path transform="translate(600,306)" d="m0 0h1v14l-2 3-2-1 1-8z" fill="#182D37"/>
<path transform="translate(764,92)" d="m0 0 9 1-4 2h-2l-1 23h-1z" fill="#12222A"/>
<path transform="translate(63,13)" d="m0 0h7l1 5-6 1-3-3z" fill="#1F3944"/>
<path transform="translate(328,370)" d="m0 0h1l2 8 6 2v2h-6l-4-4v-7z" fill="#364E5A"/>
<path transform="translate(1338,152)" d="m0 0 1 2h4v2h-3l1 8 2 2-4-1-1-1v-8h-3l1-2 2 1z" fill="#B7BFC4"/>
<path transform="translate(805,151)" d="m0 0 1 3 4 1-4 1 1 8 3 2-5-1-2-10z" fill="#CCD3D3"/>
<path transform="translate(1095,100)" d="m0 0h9l2 1v3l-11 1 1-3z" fill="#2B3F4B"/>
<path transform="translate(422,388)" d="m0 0 5 1 3 1-1 7h-3l-1-5-3-1z" fill="#344B59"/>
<path transform="translate(1696,382)" d="m0 0 7 1 2 3-9-1-1 3-2 1v-5z" fill="#455D6A"/>
<path transform="translate(1642,377)" d="m0 0h1v7l5 2v2l-7-1-1-1v-8z" fill="#3F5664"/>
<path transform="translate(313,353)" d="m0 0h7l5 3-2 2-4-2h-4l-2 4v-3h-2v-2h2z" fill="#36515F"/>
<path transform="translate(1568,348)" d="m0 0 12 2v2h-5l-1 3v-4h-2l-1 3v-3h-3z" fill="#4A5E6B"/>
<path transform="translate(366,232)" d="m0 0h5l2 2v4l-9-3z" fill="#C24C4B"/>
<path transform="translate(1425,156)" d="m0 0 4 1v6l-4 1-1-1v-6z" fill="#22424F"/>
<path transform="translate(743,151)" d="m0 0 1 3h4v2h-4v8h4v2l-5-1v-9h-3v-2h3z" fill="#DCE1E1"/>
<path transform="translate(1015,151)" d="m0 0h2v3l4 1-4 1v9l-2-1v-8l-2-1h2z" fill="#D6DCDC"/>
<path transform="translate(916,152)" d="m0 0 1 2 5 1-4 1v8l3 1-3 1-2-3v-7l-2-1h2z" fill="#CED4D4"/>
<path transform="translate(464,401)" d="m0 0h3l-1 7-2 6-2-4v-3z" fill="#4A5E6D"/>
<path transform="translate(1712,386)" d="m0 0h6l1 1-1 8-3 1 1-8h-4z" fill="#3D5462"/>
<path transform="translate(1226,369)" d="m0 0 2 1v7l-2 1zm-8 7 7 1 1 4-2-2h-7z" fill="#223C49"/>
<path transform="translate(336,258)" d="m0 0h3l1 4-2 2-2 3-2 5-2-2z" fill="#FFFFFE"/>
<path transform="translate(1362,155)" d="m0 0h6l-4 2-1 1v5l6 1-1 2h-5l-3-3 1-7z" fill="#D2D8D8"/>
<path transform="translate(1076,154)" d="m0 0h2v2l2 1-1 9h-3z" fill="#7D8B98"/>
<path transform="translate(1554,349)" d="m0 0h1v10h-5l1-5z" fill="#EFF1F1"/>
<path transform="translate(1198,240)" d="m0 0h5l2 4-8 1v-4z" fill="#45C884"/>
<path transform="translate(1026,154)" d="m0 0 5 1v10l2 1h-7l3-1v-9h-3z" fill="#D1D7D7"/>
<path transform="translate(671,92)" d="m0 0h6l-3 1-1 24h-1z" fill="#1F3944"/>
<path transform="translate(1086,521)" d="m0 0 5 1-1 5h-5v-5z" fill="#FFFFFE"/>
<path transform="translate(1413,440)" d="m0 0h14v2l-11 1-4-2z" fill="#46B28B"/>
<path transform="translate(183,403)" d="m0 0 7 1 7 3 1 2-9-2-6-2z" fill="#142831"/>
<path transform="translate(1082,931)" d="m0 0 6 1-1 3 4 1-4 1-1 2-2-1-2-4z" fill="#204653"/>
<path transform="translate(412,404)" d="m0 0 4 3h6l2-1-1 4h-8l-3-2z" fill="#364F5D"/>
<path transform="translate(348,374)" d="m0 0h3l-3 11-3 1v-5z" fill="#334A58"/>
<path transform="translate(289,362)" d="m0 0h3l2 4 6 2-1 3v-2h-7l-3-3z" fill="#4B606E"/>
<path transform="translate(258,340)" d="m0 0h7l5 5-1 3-5-5-6-1z" fill="#465E6B"/>
<path transform="translate(786,92)" d="m0 0 4 1h-3l-1 3-6 3-3-1 6-5z" fill="#172A34"/>
<path transform="translate(2021,923)" d="m0 0 5 1v3l-7 2-2 1 1-4z" fill="#B86161"/>
<path transform="translate(1551,698)" d="m0 0h3v5h-2l-1 4-1-3h-2l2-5z" fill="#204552"/>
<path transform="translate(1522,490)" d="m0 0 10 3 1 2-8 2v-3l-3-2z" fill="#204653"/>
<path transform="translate(389,392)" d="m0 0 2 4-3 3-7-1v-3l7 1z" fill="#415664"/>
<path transform="translate(867,252)" d="m0 0 5 1-1 5h-4l-1-5z" fill="#FFFFFE"/>
<path transform="translate(1174,151)" d="m0 0h2l1 6-1 9h-2z" fill="#D0D6D6"/>
<path transform="translate(696,92)" d="m0 0h6l-3 2h-2l2 4-4 1-2-2v-3z" fill="#162831"/>
<path transform="translate(693,81)" d="m0 0 12 1 3 3-16-2z" fill="#13242C"/>
<path transform="translate(1324,957)" d="m0 0h9l4 2v1h-12z" fill="#203C47"/>
<path transform="translate(1352,895)" d="m0 0 4 3-3 5h-3l-1-5 3-1z" fill="#204653"/>
<path transform="translate(1064,657)" d="m0 0 1 2h10v2l-2 1h-8l-3-4z" fill="#435968"/>
<path transform="translate(987,506)" d="m0 0h5l2 4h-9z" fill="#98A5A7"/>
<path transform="translate(230,418)" d="m0 0 11 3 3 2-4 1-9-3z" fill="#162B34"/>
<path transform="translate(1730,390)" d="m0 0h7l4 4v3h-2v-3l-9-2z" fill="#3D5662"/>
<path transform="translate(849,386)" d="m0 0 1 4-3 3h-7l-2-3h8z" fill="#364E5C"/>
<path transform="translate(1182,376)" d="m0 0 7 1 2 4h-3v-2h-5l-4 2 2-4z" fill="#324A58"/>
<path transform="translate(768,239)" d="m0 0h5l2 4h-9z" fill="#00FFD0"/>
<path transform="translate(1120,870)" d="m0 0m-1 1m-1 1 1 3-9 6h-2l1-3z" fill="#234553"/>
<path transform="translate(1084,869)" d="m0 0 11 7 1 3-5-2-7-6z" fill="#234654"/>
<path transform="translate(1450,797)" d="m0 0 1 2 3-1-1 5-4 1-1-5z" fill="#204653"/>
<path transform="translate(825,378)" d="m0 0h1v12h5v2h-7l-1-4h2z" fill="#5B6E77"/>
<path transform="translate(802,377)" d="m0 0 3 1-2 3-1 9-2-1v-10z" fill="#254554"/>
<path transform="translate(307,370)" d="m0 0 4 2h9l-1 3h-8l-4-3z" fill="#294454"/>
<path transform="translate(1253,275)" d="m0 0h8l1 2-8 1-1 2-4-2z" fill="#35B785"/>
<path transform="translate(1312,155)" d="m0 0h8l-4 2h-2v9h-2z" fill="#C9D0D1"/>
<path transform="translate(2034,880)" d="m0 0 1 3 1 5h-8l1-5 4-1z" fill="#2B3F4C"/>
<path transform="translate(1134,855)" d="m0 0 3 1-6 2v7l-3-1 1-7z" fill="#204653"/>
<path transform="translate(1199,377)" d="m0 0h1l1 13 5 1-1 2h-6l-1-3z" fill="#4B626D"/>
<path transform="translate(767,375)" d="m0 0h6l3 4-9-1h-4v-2z" fill="#374F5C"/>
<path transform="translate(276,346)" d="m0 0h1v14l4-1-1 4h-4z" fill="#213A47"/>
<path transform="translate(951,155)" d="m0 0h7l-4 2-1 9h-2z" fill="#CBD2D2"/>
<path transform="translate(785,111)" d="m0 0h18v1l-13 1-4 3z" fill="#2B4556"/>
<path transform="translate(641,82)" d="m0 0 5 1 2 4-6-1-4-2z" fill="#233640"/>
<path transform="translate(60,64)" d="m0 0 4 1v4l-3 3-3-1z" fill="#15272F"/>
<path transform="translate(983,863)" d="m0 0m-1 1m-1 1h1l-1 9h-2l-1 2v-6z" fill="#25BC80"/>
<path transform="translate(1538,711)" d="m0 0 3 3v2h-2l-1 2-5-1v-2l4-1z" fill="#204552"/>
<path transform="translate(1569,678)" d="m0 0h8l-2 4-5 1z" fill="#204552"/>
<path transform="translate(235,345)" d="m0 0h2l2 3 5 1 1 3-7-1-3-2z" fill="#4C616E"/>
<path transform="translate(257,346)" d="m0 0 7 1 3 2-2 3v-2l-8-1z" fill="#4E6470"/>
<path transform="translate(1422,151)" d="m0 0h2l1 6-1 9h-2z" fill="#ABB5B7"/>
<path transform="translate(779,98)" d="m0 0 1 3-1 2-1 10h-1l-1-13z" fill="#243A48"/>
<path transform="translate(1348,928)" d="m0 0h2l-1 3-6 6-1-4 3-4z" fill="#204653"/>
<path transform="translate(998,656)" d="m0 0h2l-1 3-7 1-2-1v-2z" fill="#536973"/>
<path transform="translate(1311,387)" d="m0 0 2 1h9v2l-2 1h-8l-2-3z" fill="#375261"/>
<path transform="translate(1602,377)" d="m0 0h7l4 1v3l-11-2z" fill="#465B66"/>
<path transform="translate(1605,365)" d="m0 0 9 2-1 3-9-2z" fill="#425868"/>
<path transform="translate(171,289)" d="m0 0h2l-3 11-2-2 1-6z" fill="#152932"/>
<path transform="translate(1667,275)" d="m0 0 3 1-1 10-3-1z" fill="#FFFFFE"/>
<path transform="translate(1748,267)" d="m0 0 5 1-1 5-5-1z" fill="#FFFFFE"/>
<path transform="translate(775,103)" d="m0 0 2 3 1 9h-3l-1-7z" fill="#13232C"/>
<path transform="translate(793,101)" d="m0 0 3 1v3h-8v-3z" fill="#1A2E38"/>
<path transform="translate(824,101)" d="m0 0 5 1-1 2-6 2-2 6h-1l1-7 4-2z" fill="#12222B"/>
</svg>
